<svg version="1.2" xmlns="http://www.w3.org/2000/svg" viewBox="0 0 2100 880" width="2100" height="880">
	<title>Aston-University-ai</title>
	<style>
		.s0 { fill: #006e8e } 
		.s1 { fill: #000000 } 
	</style>
	<g id="Layer 1">
		<path id="&lt;Path&gt;" class="s0" d="m62.4 117.5l641.9-117.5-304.7 342.3z"/>
		<path id="&lt;Compound Path&gt;" fill-rule="evenodd" class="s1" d="m1566.2 880h-1566.2v-218.2h1566.1zm-1369.1-82.7c0-13.3-7.9-19.7-19.2-23.6 7.2-3.8 13.9-9.9 13.9-21.8 0-15.2-12.4-24.7-31.9-24.7h-43.3v96.8h45.2c21.7 0 35.8-9.3 35.8-26.7zm170.3-39.4c0-19-13.7-30.7-35.9-30.7h-43.2v96.8h17v-33.7h21.3l23.8 33.7h20.1l-26.2-36.7c13.6-3.7 23.1-13.4 23.1-29.4zm640.4-31.4h-15.8l-42.6 97.5h17.4l10.1-23.4h45.7l9.8 23.4h18zm464.8 0.7h-20.9l-46 48.7v-48.7h-17v96.8h17v-28.1l15.1-15.5 33 43.6h20.6l-42.1-55.2zm-121.2 55v-55h-17v55.8c0 17.9-9.1 27-24.3 27-15.3 0-24.6-9.7-24.6-27.6v-55.1h-17v55.8c0 27.9 16 42.5 41.3 42.5 25.3 0 41.6-14.6 41.6-43.4zm-175.2 41.9v-96.8h-18.1l-29.5 45.8-29.5-45.8h-18.1v96.8h16.8v-69.1l30.2 45.3h0.6l30.6-45.7v69.4h16.9zm-176.4-77.2l16.7 38.8h-33.3zm-80.6-19.7h-17v40.3h-46.2v-40.3h-17v96.9h17v-40.8h46.2v40.8h17zm-116.1 83.3v-40.7h-41.4v14.8h24.7v18.1c-6.8 4.9-15 7.4-23.3 7.3-19.9 0-33-14.6-33-34.7 0-18.8 13.6-34.3 31.4-34.3 10.1-0.2 19.8 3.5 27.1 10.4l11-12.7c-9.9-8.5-20.2-13.2-37.2-13.2q-0.7 0-1.4 0c-27.3 0.5-49 23-48.5 50.2 0 28.4 20 50 50.2 50 14.9 0 29.2-5.4 40.4-15.1zm-125.1 13.5v-96.9h-16.7v67l-51.9-67h-15.8v96.9h16.7v-68.9l53.7 68.9zm-141 0h17v-96.9h-17zm-40-96.7h-18.1l-29.4 45.8-29.5-45.8h-18.2v96.8h16.8v-69.1l30.3 45.3h0.9l30.6-45.7v69.4h17zm-192.1 48v-32.5h24.7c12.7 0 20.1 5.5 20.1 16.2 0 10-7.6 16.3-19.8 16.3zm-73.2 48.8h17v-96.8h-17zm-75-56h-23.3v-25.7h24.5c11 0 17 4.5 17 12.4 0 9-7.3 13.3-18.2 13.3zm23.7 27.5c0 8.9-7 13.4-18.7 13.4h-28.3v-26.5h27.1c13.3 0 19.8 4.8 19.8 13.1z"/>
		<path id="Aston Fitness" class="s1" aria-label="Aston Fitness"  d="m68 466.8h67.5l-25.4-57.8q-7.9-17.3-9.7-25.5-2.5 9.4-8.8 25.5zm47.2-123.6l93.9 211.7h-33.9l-28.5-63.9h-89.3l-27.3 63.9h-29.1l90.3-211.7zm199.6 169.9v1.3q-0.3 22.7-19 34.8-14.9 9.4-33.4 9.4-27.2 0-44.5-10.9v-29.7q19.1 16.6 44.5 16.6 9.4 0 16.4-4.8 7-4.8 7-13.6 0-11.2-15.8-19.1-14.2-6.7-23.9-11.8-27.3-14-27.3-37.3 0-2.4 0.3-4.8 1.8-18.2 17.9-27.9 13.3-8.2 31.5-8.2 25.1 0 40 9.7v27.6q-17.3-13.4-38.5-13.4-21.5 0-21.5 14 0 8.5 12.4 15.1 8.8 4.6 26.4 13.4 27.8 15.1 27.5 39.6zm120.9 11.9v24.2q-17 9.4-34.8 9.4-22.4 0-34.9-12.4-12.1-12.5-12.1-32.8v-78.7h-22.4v-5.8l52.4-51.5v33h44.5v24.3h-44.5v77.2q0 22.4 19.4 22.7h1.8q16.1 0.3 30.6-9.6zm140.6-42.2q0-22.7-13.4-37.2-13-14.6-33-14.6-20 0-33.3 14.6-13 14.5-13 37.2 0 22.5 13 37 13.3 14.5 33.3 14.5 20 0 33-14.5 13.4-14.5 13.4-37zm31.2 0q0 30.3-19.7 51.8-21.8 24-58.5 24-32.7 0-54.8-21.5-22.1-21.8-22.1-54.3 0-32.7 22.1-54.2 22.1-21.8 55.4-21.8 33.6 0 55.4 21.5 22.2 21.5 22.2 54.5zm153.8-20.6v92.7h-30.2v-93q0-31.2-27.9-31.2-22.4 0-35.5 23.7v100.5h-30.3v-112q0-24.9-13.3-29.4v-3.1h41.5l0.6 18.5q16.4-22.1 46.7-22.1 19.4 0 32.1 11.5 16.3 14.6 16.3 43.9zm247.8-119v25.1h-89v67h86v24.2h-86v95.4h-33.3v-164.7q0-20.3-2.2-28.5-3-11.8-12.7-15.5v-3zm67.9 67.2v144.5h-30.3v-112q0-25.2-13.4-29.4v-3.1zm2.5-46.9q0 7.6-5.2 12.7-5.1 5.2-12.7 5.2-7.3 0-12.4-5.2-5.2-5.1-5.2-12.7 0-7.3 5.2-12.4 5.1-5.2 12.4-5.2 7.6 0 12.7 5.2 5.2 5.1 5.2 12.4zm129.9 161.5v24.2q-16.9 9.4-34.8 9.4-22.4 0-34.9-12.4-12.1-12.5-12.1-32.8v-78.7h-22.4v-5.8l52.4-51.5v33h44.5v24.3h-44.5v77.2q0 22.4 19.4 22.7h1.8q16.1 0.3 30.6-9.6zm155.4-62.8v92.7h-30.3v-93q0-31.2-27.8-31.2-22.5 0-35.5 23.7v100.5h-30.3v-112q0-24.9-13.3-29.4v-3.1h41.5l0.6 18.5q16.4-22.1 46.7-22.1 19.3 0 32.1 11.5 16.3 14.6 16.3 43.9zm61.2 4h72.1q-3.3-35.8-34.8-35.8-30.6 0-37.3 35.8zm102.1 13.6q0 3.7 0 7.6h-103.3q1.8 20.3 13.3 32.4 11.5 12.1 30 13.6 4.9 0.6 9.1 0.6 22.7 0 42.1-12.4l3.9 23.6q-22.4 13.4-54.8 13.4-32.4 0-53.6-20.9-21.2-21.2-21.2-54.9 0-32.1 20-53.9 20.3-22.1 50-22.1 30 0 47.2 19.1 17.3 19.1 17.3 53.9zm118.1 33.3v1.3q-0.3 22.7-19.1 34.8-14.8 9.4-33.3 9.4-27.2 0-44.5-10.9v-29.7q19.1 16.6 44.5 16.6 9.4 0 16.4-4.8 7-4.8 7-13.6 0-11.2-15.8-19.1-14.2-6.7-23.9-11.8-27.3-14-27.3-37.3 0-2.4 0.3-4.8 1.8-18.2 17.9-27.9 13.3-8.2 31.5-8.2 25.1 0 40 9.7v27.6q-17.3-13.4-38.5-13.4-21.5 0-21.5 14 0 8.5 12.4 15.1 8.8 4.6 26.4 13.4 27.8 15.1 27.5 39.6zm119.7 0v1.3q-0.3 22.7-19.1 34.8-14.8 9.4-33.3 9.4-27.3 0-44.5-10.9v-29.7q19 16.6 44.5 16.6 9.4 0 16.3-4.8 7-4.8 7-13.6 0-11.2-15.7-19.1-14.3-6.7-24-11.8-27.2-14-27.2-37.3 0-2.4 0.3-4.8 1.8-18.2 17.8-27.9 13.4-8.2 31.5-8.2 25.2 0 40 9.7v27.6q-17.2-13.4-38.4-13.4-21.6 0-21.6 14 0 8.5 12.5 15.1 8.7 4.6 26.3 13.4 27.9 15.1 27.6 39.6z"/>
	</g>
</svg>